<svg xmlns="http://www.w3.org/2000/svg" xmlns:xlink="http://www.w3.org/1999/xlink" viewBox="0 0 24 25" class="design-iconfont">
  <defs>
    <path d="M7.74375,18.6602017 C8.68828125,18.6602017 9.4546875,19.3675027 9.4546875,20.2391918 C9.4546875,21.1108808 8.68828125,21.8181818 7.74375,21.8181818 C6.79921875,21.8181818 6.0328125,21.1108808 6.0328125,20.2391918 C6.0328125,19.3675027 6.79921875,18.6602017 7.74375,18.6602017 Z M19.74375,18.6602017 C20.6882812,18.6602017 21.4546875,19.3675027 21.4546875,20.2391918 C21.4546875,21.1108808 20.6882812,21.8181818 19.74375,21.8181818 C18.7992187,21.8181818 18.0328125,21.1108808 18.0328125,20.2391918 C18.0328125,19.3675027 18.7992187,18.6602017 19.74375,18.6602017 Z M2.40234375,-1.67865721e-13 L2.42354188,0.000487781156 C3.1471731,0.0148250518 3.80498162,0.345038641 4.1625,0.966861036 L4.10218465,0.86975289 C4.11356268,0.885586515 4.12426333,0.901904095 4.13424151,0.918676938 L4.1625,0.966861036 C4.1626639,0.968555134 4.16280545,0.970245847 4.16292484,0.97193314 C4.18766559,1.02403325 4.20604106,1.08045627 4.21640625,1.13990104 L4.335,1.822 L21.4570312,1.78447507 C22.85625,1.78447507 24,2.84001911 24,4.13133015 L23.9976562,4.14214516 L23.9976562,4.14214516 L23.9976562,4.19405716 L23.862,4.949 L22.753125,11.5807024 C22.5234663,12.763054 22.1385669,13.4673713 21.0557308,13.7844033 C20.7954606,13.8775969 20.5152656,13.9318534 20.2227929,13.9397147 C20.2059354,13.9413277 20.1881875,13.9431228 20.1703125,13.9448615 L18.792,14.047 L8.6296875,14.8273656 L8.56640625,14.8273656 C8.52557627,14.8273656 8.48544515,14.8240566 8.44634157,14.8177005 L6.617,14.952 L6.745,15.687 C6.84828125,16.1806826 7.01015625,16.4284567 7.62201458,16.459295 L7.76015625,16.4625936 L7.757,16.464 L21.5132812,16.4647566 C21.9257812,16.4647566 22.2609375,16.7762286 22.2609375,17.1547536 C22.2585937,17.5332787 21.9257812,17.8447507 21.5109375,17.8447507 L7.27507895,17.8450766 C6.9299086,17.865212 6.60199596,17.8124235 6.35859375,17.6738737 C5.7234375,17.3148156 5.45390625,16.9752246 5.37421875,16.4972016 L5.39667829,16.6140916 C5.39039797,16.5921861 5.38523268,16.5697914 5.38125,16.5469506 L2.901,2.304 C2.68249982,1.52534418 2.13448923,1.39196666 1.60964391,1.38190924 L0.6984375,1.38215705 C0.31171875,1.38215705 -6.06181771e-14,1.09231504 -6.06181771e-14,0.739746028 L-6.06181771e-14,0.646737024 C-6.06181771e-14,0.289842011 0.31640625,-1.67865721e-13 0.6984375,-1.67865721e-13 L2.40234375,-1.67865721e-13 Z" id="tt3c2ys5za"/>
  </defs>
  <use fill="#C5CCCE" fill-rule="nonzero" xlink:href="#tt3c2ys5za" transform="translate(0 1)"/>
</svg>
