<svg xmlns="http://www.w3.org/2000/svg" xmlns:xlink="http://www.w3.org/1999/xlink" viewBox="0 0 24 24" class="design-iconfont">
  <defs>
    <path d="M11.0000897,0 C6.98840423,0 3.29488637,2.1841311 1.36162385,5.69925791 C-0.571638665,9.21438473 -0.438065064,13.5032125 1.71019252,16.8912222 C1.86419909,17.259738 1.75419441,18.7118001 1.71019252,19.3333266 C1.71019252,19.7348438 1.65519017,20.0868589 1.65519017,20.3508701 C1.65392523,20.7128311 1.81549796,21.0561731 2.09520897,21.2859101 C2.64523248,21.7534301 3.40976518,21.610424 4.63631762,21.3739139 C5.30748525,21.2072081 5.99634553,21.1222548 6.68790535,21.1209031 C10.7934414,22.869854 15.5487907,21.9652207 18.725369,18.8309575 C21.9019473,15.6966944 22.8702672,10.9539035 21.1765274,6.8252837 C19.4827877,2.69666393 15.4626288,0.000364341195 11.0000897,0 Z" id="rwx1emzjla"/>
  </defs>
  <g fill="none" fill-rule="evenodd">
    <g transform="matrix(-1 0 0 1 23 1)">
      <mask id="egt8ziptab" fill="#fff">
        <use xlink:href="#rwx1emzjla"/>
      </mask>
      <use fill="#00BEE6" fill-rule="nonzero" xlink:href="#rwx1emzjla"/>
      <path fill="#FFF" opacity=".2" mask="url(#egt8ziptab)" d="M-2 -6A11 11 0 1 0 -2 16A11 11 0 1 0 -2 -6Z"/>
    </g>
    <path d="M14.7502073,15.3006115 L9.24997213,15.3006115 C8.64249869,15.3005185 8.15009349,14.8080379 8.15009349,14.2005644 C8.15009349,13.593091 8.64249869,13.1006104 9.24997213,13.1005174 L14.7502073,13.1005174 C15.3576807,13.1006104 15.8500859,13.593091 15.8500859,14.2005644 C15.8500859,14.8080379 15.3576807,15.3005185 14.7502073,15.3006115 Z" fill="#FFF" fill-rule="nonzero" transform="matrix(-1 0 0 1 24 0)"/>
    <path d="M15.8502543,10.9004233 L8.14992511,10.9004233 C7.54245168,10.9003303 7.05004648,10.4078497 7.05004648,9.80037628 C7.05004648,9.19290284 7.54245168,8.70042225 8.14992511,8.70032925 L15.8502543,8.70032925 C16.4577278,8.70042225 16.950133,9.19290284 16.950133,9.80037628 C16.950133,10.4078497 16.4577278,10.9003303 15.8502543,10.9004233 L15.8502543,10.9004233 Z" fill="#FFF" fill-rule="nonzero" transform="matrix(-1 0 0 1 24 0)"/>
  </g>
</svg>
