<svg xmlns="http://www.w3.org/2000/svg" viewBox="0 0 24 24" class="design-iconfont">
  <path d="M12.0000897,1 C7.98840423,1 4.29488637,3.1841311 2.36162385,6.69925791 C0.428361335,10.2143847 0.561934936,14.5032125 2.71019252,17.8912222 C2.86419909,18.259738 2.75419441,19.7118001 2.71019252,20.3333266 C2.71019252,20.7348438 2.65519017,21.0868589 2.65519017,21.3508701 C2.65392523,21.7128311 2.81549796,22.0561731 3.09520897,22.2859101 C3.64523248,22.7534301 4.40976518,22.610424 5.63631762,22.3739139 C6.30748525,22.2072081 6.99634553,22.1222548 7.68790535,22.1209031 C11.7934414,23.869854 16.5487907,22.9652207 19.725369,19.8309575 C22.9019473,16.6966944 23.8702672,11.9539035 22.1765274,7.8252837 C20.4827877,3.69666393 16.4626288,1.00036434 12.0000897,1 Z M14.7502073,15.3006115 L9.24997213,15.3006115 C8.64249869,15.3005185 8.15009349,14.8080379 8.15009349,14.2005644 C8.15009349,13.593091 8.64249869,13.1006104 9.24997213,13.1005174 L14.7502073,13.1005174 C15.3576807,13.1006104 15.8500859,13.593091 15.8500859,14.2005644 C15.8500859,14.8080379 15.3576807,15.3005185 14.7502073,15.3006115 Z M15.8502543,10.9004233 L8.14992511,10.9004233 C7.54245168,10.9003303 7.05004648,10.4078497 7.05004648,9.80037628 C7.05004648,9.19290284 7.54245168,8.70042225 8.14992511,8.70032925 L15.8502543,8.70032925 C16.4577278,8.70042225 16.950133,9.19290284 16.950133,9.80037628 C16.950133,10.4078497 16.4577278,10.9003303 15.8502543,10.9004233 L15.8502543,10.9004233 Z" transform="matrix(-1 0 0 1 24 0)" fill="#C5CCCE" fill-rule="nonzero"/>
</svg>
