<svg xmlns="http://www.w3.org/2000/svg" xmlns:xlink="http://www.w3.org/1999/xlink" viewBox="0 0 24 24" class="design-iconfont">
  <defs>
    <path d="M0.801458613,6.90004649 L8.8181865,0.898908119 C9.52978467,0.366222073 10.5075642,0.36711423 11.2181891,0.901097958 L19.2014612,6.89995525 C19.7042136,7.2777377 20,7.86998666 20,8.49885833 L20,18 C20,19.1045695 19.1045695,20 18,20 L2,20 C0.8954305,20 1.3527075e-16,19.1045695 0,18 L0,8.50113941 C-7.71718585e-17,7.87098337 0.29698942,7.27768054 0.801458613,6.90004649 Z" id="kprar4qsna"/>
  </defs>
  <g fill="none" fill-rule="evenodd">
    <use fill="#C5CCCE" xlink:href="#kprar4qsna" transform="translate(2 2)"/>
    <path d="M12,13.6666667 C12.4602373,13.6666667 12.8333333,14.0397627 12.8333333,14.5 L12.8333333,21.1666667 C12.8333333,21.626904 12.4602373,22 12,22 C11.5397627,22 11.1666667,21.626904 11.1666667,21.1666667 L11.1666667,14.5 C11.1666667,14.0397627 11.5397627,13.6666667 12,13.6666667 Z" fill="#FFF" transform="rotate(90 12 17.833333)"/>
  </g>
</svg>
