<svg xmlns="http://www.w3.org/2000/svg" xmlns:xlink="http://www.w3.org/1999/xlink" viewBox="0 0 24 24" class="design-iconfont">
  <defs>
    <path d="M16.1111111,12.2222222 C18.2588851,12.2222222 20,13.9633371 20,16.1111111 C20,18.2588851 18.2588851,20 16.1111111,20 L3.88888889,20 C1.74111486,20 2.63026459e-16,18.2588851 0,16.1111111 C-2.63026459e-16,13.9633371 1.74111486,12.2222222 3.88888889,12.2222222 L16.1111111,12.2222222 Z M10,8.8817842e-15 C13.0682486,8.8817842e-15 15.5555556,2.48730695 15.5555556,5.55555556 C15.5555556,8.62380417 13.0682486,11.1111111 10,11.1111111 C6.93175139,11.1111111 4.44444444,8.62380417 4.44444444,5.55555556 C4.44444444,2.48730695 6.93175139,8.8817842e-15 10,8.8817842e-15 Z" id="mygeymrfua"/>
  </defs>
  <g transform="translate(2 2)" fill="none" fill-rule="evenodd">
    <mask id="othpi8dc0b" fill="#fff">
      <use xlink:href="#mygeymrfua"/>
    </mask>
    <use fill="#00BEE6" xlink:href="#mygeymrfua"/>
    <path fill-opacity=".2" fill="#FFF" mask="url(#othpi8dc0b)" d="M15.5 6A5.5 5.5 0 1 0 15.5 17A5.5 5.5 0 1 0 15.5 6Z"/>
  </g>
</svg>
