<svg xmlns="http://www.w3.org/2000/svg" xmlns:xlink="http://www.w3.org/1999/xlink" viewBox="0 0 24 24" class="design-iconfont">
  <defs>
    <path d="M16.1111111,12.2222222 C18.2588851,12.2222222 20,13.9633371 20,16.1111111 C20,18.2588851 18.2588851,20 16.1111111,20 L3.88888889,20 C1.74111486,20 2.63026459e-16,18.2588851 0,16.1111111 C-2.63026459e-16,13.9633371 1.74111486,12.2222222 3.88888889,12.2222222 L16.1111111,12.2222222 Z M10,8.8817842e-15 C13.0682486,8.8817842e-15 15.5555556,2.48730695 15.5555556,5.55555556 C15.5555556,8.62380417 13.0682486,11.1111111 10,11.1111111 C6.93175139,11.1111111 4.44444444,8.62380417 4.44444444,5.55555556 C4.44444444,2.48730695 6.93175139,8.8817842e-15 10,8.8817842e-15 Z" id="ftu19325da"/>
  </defs>
  <use fill="#C5CCCE" xlink:href="#ftu19325da" transform="translate(2 2)" fill-rule="evenodd"/>
</svg>
