<svg xmlns="http://www.w3.org/2000/svg" xmlns:xlink="http://www.w3.org/1999/xlink" viewBox="0 0 24 24" class="design-iconfont">
  <defs>
    <rect id="bnzdps4yxa" x="0" y="0" width="8.88888889" height="8.88888889" rx="2"/>
    <path d="M6.88888889,11.1111111 C7.99345839,11.1111111 8.88888889,12.0065416 8.88888889,13.1111111 L8.88888889,18 C8.88888889,19.1045695 7.99345839,20 6.88888889,20 L2,20 C0.8954305,20 2.50042665e-14,19.1045695 2.48689958e-14,18 L2.48689958e-14,13.1111111 C2.4733725e-14,12.0065416 0.8954305,11.1111111 2,11.1111111 L6.88888889,11.1111111 Z M6.88888889,-2.00728323e-13 C7.99345839,-2.00931229e-13 8.88888889,0.8954305 8.88888889,2 L8.88888889,6.88888889 C8.88888889,7.99345839 7.99345839,8.88888889 6.88888889,8.88888889 L2,8.88888889 C0.8954305,8.88888889 2.50042665e-14,7.99345839 2.48689958e-14,6.88888889 L2.48689958e-14,2 C2.4733725e-14,0.8954305 0.8954305,-2.00525417e-13 2,-2.00728323e-13 L6.88888889,-2.00728323e-13 Z" id="ymrhtmadmc"/>
  </defs>
  <g fill="none" fill-rule="evenodd">
    <g transform="translate(2 2)">
      <mask id="blf09f3o2b" fill="#fff">
        <use xlink:href="#bnzdps4yxa"/>
      </mask>
      <use fill="#00BEE6" xlink:href="#bnzdps4yxa"/>
      <path fill="#FFF" opacity=".2" mask="url(#blf09f3o2b)" d="M-2 -8A7 7 0 1 0 -2 6A7 7 0 1 0 -2 -8Z"/>
    </g>
    <rect fill="#00BEE6" x="2" y="13.1111111" width="8.88888889" height="8.88888889" rx="2"/>
    <g transform="translate(13.111111 2)">
      <mask id="hq3dw2cdhd" fill="#fff">
        <use xlink:href="#ymrhtmadmc"/>
      </mask>
      <use fill="#00BEE6" xlink:href="#ymrhtmadmc"/>
      <path fill="#FFF" opacity=".2" mask="url(#hq3dw2cdhd)" d="M11.8888889 3A7 7 0 1 0 11.8888889 17A7 7 0 1 0 11.8888889 3Z"/>
    </g>
  </g>
</svg>
