<svg xmlns="http://www.w3.org/2000/svg" xmlns:xlink="http://www.w3.org/1999/xlink" viewBox="0 0 140 130" class="design-iconfont">
  <defs>
    <linearGradient x1="51.6655128%" y1="-3.93615918%" x2="51.6655128%" y2="60.7356056%" id="r1a1yq5kva">
      <stop stop-color="#C9C9C9" offset="0%"/>
      <stop stop-color="#FFF" stop-opacity=".07129589" offset="100%"/>
    </linearGradient>
    <linearGradient x1="57.6896967%" y1="-10.148743%" x2="50%" y2="82.8851976%" id="9guaflg4hc">
      <stop stop-color="#F4F4F4" offset="0%"/>
      <stop stop-color="#CBCBCB" offset="100%"/>
    </linearGradient>
    <linearGradient x1="4.44214876%" y1="28.2738537%" x2="87.4566336%" y2="63.2165577%" id="w20iar2iwd">
      <stop stop-color="#A19F9F" offset="0%"/>
      <stop stop-color="#D3D3D3" offset="100%"/>
    </linearGradient>
    <linearGradient x1="91.5211293%" y1="89.8940899%" x2="64.9003313%" y2="19.9480426%" id="0edwf4pq3g">
      <stop stop-color="#CBCBCB" offset="0%"/>
      <stop stop-color="#EAEAEA" offset="100%"/>
    </linearGradient>
    <filter x="0%" y="0%" width="100%" height="100%" filterUnits="objectBoundingBox" id="l8kyjfk8mb">
      <feGaussianBlur in="SourceGraphic"/>
    </filter>
    <filter x="-15.1%" y="-7.7%" width="126.4%" height="121.5%" filterUnits="objectBoundingBox" id="jpdzkgd6ye">
      <feOffset dx="-1" dy="2" in="SourceAlpha" result="shadowOffsetOuter1"/>
      <feGaussianBlur stdDeviation="2" in="shadowOffsetOuter1" result="shadowBlurOuter1"/>
      <feColorMatrix values="0 0 0 0 0 0 0 0 0 0 0 0 0 0 0 0 0 0 0.0733173077 0" in="shadowBlurOuter1"/>
    </filter>
    <path d="M31.3859012,37.258857 C36.1798303,36.5695462 39.3004521,31.8504186 38.3772481,26.750483 C37.4540441,21.6553678 32.8235991,18.0497423 28.02967,18.7342327 C23.235741,19.4235434 20.0766523,24.142671 20.9998563,29.2426066 C21.9230603,34.3425422 26.5535053,37.9529881 31.3859012,37.258857 M24.6830555,0.252991595 C39.0600344,-1.80529999 53.013878,8.91998989 55.7931067,24.2583595 C57.6395147,34.4534103 51.1722784,48.0660929 36.4106313,65 C16.379028,53.0503399 5.435214,41.9394217 3.58399766,31.7395505 C0.809577334,16.4060012 10.2628015,2.32092389 24.6830555,0.252991595" id="he17wo4k2f"/>
  </defs>
  <g fill="none" fill-rule="evenodd">
    <path fill="url(#r1a1yq5kva)" filter="url(#l8kyjfk8mb)" d="M70 78A70 25.625 0 1 0 70 129.25A70 25.625 0 1 0 70 78Z" transform="translate(0 .75)"/>
    <path d="M34.4232871,66.5529135 C15.648166,54.0205783 6.05758992,47.6457446 1.8185825,36.8102283 C-2.77319362,25.0729842 1.89659746,11.4279668 9.50350499,5.45513754 C13.3072024,2.61003031 18.5327926,0.848785311 25.1802756,0.171402525 C14.5826191,4.91487451 1.97898797,18.3184378 4.31365606,31.1133294 C6.1659547,41.2676241 16.3151204,53.0981103 36.4106313,65 L34.4232871,66.5529135 Z" fill="url(#9guaflg4hc)" transform="rotate(7 -123.12313835 352.82412282)"/>
    <path d="M26.1427988,42.1479578 C29.9964659,40.3869009 32.2686007,35.9469028 31.419845,31.2133953 C30.4076643,25.5673401 25.3309455,21.5756111 20.0802582,22.3387357 C19.2262308,22.4561395 18.4301929,22.6962836 17.6816009,23.037822 L26.6805198,18.9393622 C27.42384,18.5978239 28.2251497,18.3630163 29.0739054,18.240276 C34.3245927,17.4824878 39.4013114,21.4742169 40.4134921,27.1149356 C41.2622478,31.8537796 38.990113,36.2937777 35.1364459,38.0494981 L26.1427988,42.1479578 Z" fill="url(#w20iar2iwd)" transform="rotate(7 -123.12313835 352.82412282)"/>
    <g transform="rotate(7 -123.12313835 352.82412282)">
      <use fill="#000" filter="url(#jpdzkgd6ye)" xlink:href="#he17wo4k2f"/>
      <use fill="url(#0edwf4pq3g)" xlink:href="#he17wo4k2f"/>
    </g>
    <path d="M107.667467,44.1770297 C107.535541,41.016069 110.932914,37.685187 112.021044,42.2034082 C113.109175,46.7216294 113.34031,53.1205957 114.923429,59.3538623 C116.506548,65.5871289 118.35352,65.0267049 118.35352,61.0689078 C118.35352,57.1111106 118.188875,52.2298275 119.145079,47.6123976 C120.101283,42.9949676 123.300766,44.1495889 124.422142,47.0846913 C125.543518,50.0197936 122.938232,56.5174411 123.630582,59.3538623 C124.322933,62.1902836 126.38046,63.181316 127.1926,58.4303763 C128.00474,53.6794367 126.48389,44.1770297 126.48389,44.1770297 C126.48389,44.1770297 127.60896,43.02663 128.511866,43.1268942 C129.414771,43.2271584 130.094984,44.5780864 130.094984,44.5780864 C130.094984,44.5780864 133.228504,55.5279918 131.282324,61.9923937 C129.336143,68.4567957 124.751958,63.3449049 122.311317,70.4356943 C119.870675,77.5264836 120.332418,89.4331204 120.332418,89.4331204 C120.332418,89.4331204 118.089667,90.1919621 116.506548,89.9608267 C115.524264,89.7926669 114.634878,89.277759 113.999943,88.5096344 C113.999943,88.5096344 116.67172,79.2747745 116.506548,73.8657851 C116.341376,68.4567957 114.824748,70.5676208 112.812604,67.7971629 C111.54537,66.0071047 110.524775,64.0546627 109.778293,61.9923937 C109.778293,61.9923937 107.799394,47.3374626 107.667467,44.1770297 Z" fill="#D3D3D3" fill-rule="nonzero" transform="translate(0 .75)"/>
    <path d="M24.8840721,62.038168 C24.975893,59.7611154 22.6107135,57.3616349 21.8529273,60.6165273 C21.095141,63.8714196 19.8323399,65.0788116 19.8323399,65.0788116 C19.8323399,65.0788116 17.444469,69.1658968 17.444469,66.3162828 C17.444469,63.4666689 17.5595089,61.8450275 16.8935436,58.5183671 C16.2275783,55.1917067 14.0001301,56.0223164 13.2196525,58.1368355 C12.4391749,60.2513545 14.2529014,63.0360606 13.7705778,65.0793393 C13.2882543,67.122618 11.8560594,67.8360769 11.290886,64.4139017 C10.7257126,60.9917265 11.7842914,54.1463206 11.7842914,54.1463206 C11.7842914,54.1463206 11.0006476,53.317294 10.3721494,53.3874789 C9.7436512,53.4576639 9.27029866,54.4349759 9.27029866,54.4349759 C9.27029866,54.4349759 7.08876089,62.3231294 8.44338292,66.9796096 C9.79800495,71.6360899 12.9901002,67.9521723 14.6893145,73.0619522 C16.3885287,78.1717322 16.0671556,86.7469593 16.0671556,86.7469593 C16.9216318,87.0462007 17.8264231,87.1752774 18.7304892,87.1269078 C19.4196598,87.0014394 20.0398097,86.6299495 20.4756139,86.0815216 C20.4756139,86.0815216 18.6159769,79.4292562 18.7304892,75.5326731 C18.8450014,71.6360899 19.9014694,73.1579948 21.3020019,71.1611542 C22.1861518,69.8660287 22.8958637,68.4600893 23.412827,66.9796096 C23.412827,66.9796096 24.7922512,64.3152206 24.8840721,62.038168 Z" fill="#D3D3D3" fill-rule="nonzero" transform="translate(0 .75)"/>
    <g fill-rule="nonzero">
      <path d="M70.1035053,9.52328887 L70.1035053,9.49373732 C68.2317311,4.5612667 62.1409452,2.24621924 56.9694237,2.9570396 C60.8021544,0.728535973 67.1309358,0.134338699 70.1024499,3.55123688 L70.1024499,3.58078843 C73.0734363,0.193441803 79.432297,0.758087524 83.2354762,2.98659115 C78.0639546,2.30321152 71.9742241,4.62248063 70.1024499,9.52328887 L70.1035053,9.52328887 Z" fill="#D0D0D0" transform="translate(25.75 10.333003)"/>
      <path d="M6.30556236,16.9712502 L6.30556236,16.9559467 C5.40846169,14.5876009 2.48233035,13.4730853 0,13.8171498 C1.84063951,12.7469614 4.87917228,12.462 6.30609007,14.1026389 L6.30609007,14.1168869 C7.73089703,12.4904962 10.7857887,12.7617372 12.6121801,13.8313978 C10.1319606,13.5031645 7.20530158,14.6160971 6.30609007,16.9701948 L6.30556236,16.9712502 Z" fill="#D0D0D0" opacity=".79376363" transform="translate(25.75 10.333003)"/>
      <path d="M7.72678433,41.5955438 L7.72678433,41.5855174 C7.10356321,39.9438231 5.07664338,39.1728442 3.35579319,39.4097844 C4.63125928,38.668357 6.73786276,38.4704672 7.72678433,39.6076742 L7.72678433,39.6177006 C8.7157059,38.49052 10.8318081,38.6783834 12.0977755,39.4198108 C10.3769253,39.1923694 8.35106086,39.963876 7.72678433,41.5955438 L7.72678433,41.5955438 Z" fill="#D0D0D0" transform="translate(25.75 10.333003)"/>
      <path d="M76.7557775,29.4582993 L76.7557775,29.4482729 C76.1325564,27.8065786 74.1056366,27.0355997 72.3847864,27.2725399 C73.6602525,26.5311125 75.766856,26.3332227 76.7557775,27.4704297 L76.7557775,27.4804561 C77.7446991,26.3532755 79.8608013,26.541139 81.1267687,27.2825663 C79.4059185,27.0551249 77.3800541,27.8266315 76.7557775,29.4582993 L76.7557775,29.4582993 Z" fill="#D0D0D0" opacity=".39698401" transform="translate(25.75 10.333003)"/>
      <path d="M40.7447774,1.93483508 L40.7447774,1.9279749 C40.3131137,0.790240157 38.9073041,0.255145987 37.7146879,0.419790347 C38.5991237,-0.0941955714 40.0592869,-0.231399205 40.7447774,0.556993981 L40.7447774,0.563854162 C41.4307956,-0.217678841 42.8972913,-0.0873353897 43.7748669,0.426650529 C42.5822507,0.268338644 41.1764411,0.803960521 40.7447774,1.93483508 Z" fill="#E7E7E7" opacity=".35" transform="translate(25.75 10.333003)"/>
    </g>
  </g>
</svg>
