<svg xmlns="http://www.w3.org/2000/svg" xmlns:xlink="http://www.w3.org/1999/xlink" viewBox="0 0 112 103" class="design-iconfont">
  <defs>
    <linearGradient x1="51.6655128%" y1="-3.93615918%" x2="51.6655128%" y2="66.0909522%" id="hjbpjryu2a">
      <stop stop-color="#E8E8E8" offset="0%"/>
      <stop stop-color="#FFF" stop-opacity=".07129589" offset="100%"/>
    </linearGradient>
    <linearGradient x1="61.190946%" y1="-10.148743%" x2="63.4953896%" y2="50%" id="m31ob82bzc">
      <stop stop-color="#F4F4F4" offset="0%"/>
      <stop stop-color="#B8B8B8" offset="100%"/>
    </linearGradient>
    <linearGradient x1="36.1235862%" y1="1.77505409%" x2="43.6822412%" y2="44.3791289%" id="w4dqrmry6d">
      <stop stop-color="#F4F0F0" offset="0%"/>
      <stop stop-color="#C6C6C6" offset="100%"/>
    </linearGradient>
    <linearGradient x1="83.758376%" y1="-10.7545434%" x2="23.8420563%" y2="100%" id="nmbb1w124f">
      <stop stop-color="#C7C7C7" offset="0%"/>
      <stop stop-color="#EBEBEB" offset="100%"/>
    </linearGradient>
    <linearGradient x1="86.4589943%" y1="9.44270156%" x2="5.81630375%" y2="100%" id="800rn45kdi">
      <stop stop-color="#F6F6F6" offset="0%"/>
      <stop stop-color="#EBEBEB" offset="100%"/>
    </linearGradient>
    <linearGradient x1="36.2921222%" y1="28.2738537%" x2="61.2703067%" y2="63.2165577%" id="y9k31xf24l">
      <stop stop-color="#A19F9F" offset="0%"/>
      <stop stop-color="#D3D3D3" offset="100%"/>
    </linearGradient>
    <linearGradient x1="75.7132131%" y1="19.7141985%" x2="30.6651173%" y2="43.1871521%" id="43wkac0p4m">
      <stop stop-color="#F9F9F9" offset="0%"/>
      <stop stop-color="#D8D8D8" offset="100%"/>
    </linearGradient>
    <linearGradient x1="112.451681%" y1="62.7762341%" x2="72.4114987%" y2="40.3757463%" id="05ahw3hsyp">
      <stop stop-color="#CBCBCB" offset="0%"/>
      <stop stop-color="#EAEAEA" offset="100%"/>
    </linearGradient>
    <path id="v0r1psya8e" d="M0 8.3016785L35.528253 8.72543861e-14 35.528253 38.3820831 0 49.1198526z"/>
    <path id="ogxqnocmlg" d="M20.6670058 28.4601954L33.3263656 25.0278597 33.9249041 25.561019 21.2655444 39.0278597 20.6670058 38.6609993z"/>
    <path id="qij7t6zdkh" d="M21.2655444 28.9933547L33.9249041 25.561019 33.9249041 35.4192628 21.2655444 39.0278597z"/>
    <path id="g03x2wpe1o" d="M35.1886642 39.5432997L40.6 55.8015475 78.5876829 46.337643 70.7169172 31.2416212z"/>
    <path d="M75.5301554,61.6971377 L80.5932414,60.381948 C80.8455373,60.3164115 81.1031914,60.4678099 81.1687279,60.7201058 C81.178794,60.7588574 81.1838885,60.7987324 81.1838885,60.8387701 C81.1838885,61.2001164 80.9446826,61.5178163 80.5974137,61.6176934 L75.5253805,63.0764469 C75.2462859,63.1567166 74.9549636,62.9955371 74.874694,62.7164424 C74.8611042,62.6691914 74.8542086,62.6202679 74.8542086,62.5711014 C74.8542086,62.1598415 75.1321055,61.8005353 75.5301554,61.6971377 Z" id="x1ra8327cq"/>
    <path d="M75.5228918,67.6712359 L78.7310438,66.7045632 C78.9708397,66.6323085 79.2238068,66.7681275 79.2960615,67.0079234 C79.3088473,67.0503565 79.3153438,67.0944347 79.3153438,67.1387522 C79.3153438,67.5036732 79.0831328,67.8281451 78.7377228,67.9458705 L75.5152482,69.04418 C75.2539741,69.1332296 74.9699807,68.993614 74.8809312,68.7323398 C74.8632368,68.6804241 74.8542086,68.6259497 74.8542086,68.5711014 C74.8542086,68.1564854 75.125906,67.7908548 75.5228918,67.6712359 Z" id="ai019daaxr"/>
    <path d="M75.5256824,64.6807408 L84.8991667,62.0007667 C85.1435496,61.9308952 85.3983032,62.0723646 85.4681747,62.3167475 C85.4799376,62.3578893 85.4859053,62.4004707 85.4859053,62.4432611 C85.4859053,62.8056355 85.2486478,63.1252777 84.9017945,63.230197 L75.5226751,66.0672771 C75.2486448,66.1501682 74.9593029,65.9952193 74.8764118,65.7211891 C74.8616898,65.6725196 74.8542086,65.6219488 74.8542086,65.5711014 C74.8542086,65.1577063 75.1282136,64.7943811 75.5256824,64.6807408 Z" id="atyk77x6ts"/>
    <filter x="0%" y="0%" width="100%" height="100%" filterUnits="objectBoundingBox" id="7yciib2olb">
      <feGaussianBlur in="SourceGraphic"/>
    </filter>
    <filter x="-17.6%" y="-66.2%" width="135.2%" height="232.4%" filterUnits="objectBoundingBox" id="sm6gwkinzj">
      <feGaussianBlur stdDeviation="3" in="SourceGraphic"/>
    </filter>
    <filter x="-18.4%" y="-20.4%" width="132.3%" height="157%" filterUnits="objectBoundingBox" id="pxbebmucln">
      <feOffset dx="-1" dy="2" in="SourceAlpha" result="shadowOffsetOuter1"/>
      <feGaussianBlur stdDeviation="2" in="shadowOffsetOuter1" result="shadowBlurOuter1"/>
      <feColorMatrix values="0 0 0 0 0 0 0 0 0 0 0 0 0 0 0 0 0 0 0.0733173077 0" in="shadowBlurOuter1"/>
    </filter>
  </defs>
  <g transform="translate(0 5)" fill="none" fill-rule="evenodd">
    <path fill="url(#hjbpjryu2a)" opacity=".89067042" filter="url(#7yciib2olb)" d="M56 57.400000000000006A56 20.5 0 1 0 56 98.4A56 20.5 0 1 0 56 57.400000000000006Z"/>
    <path d="M86.1339739,30.3416237 C86.0284327,27.8128552 88.7463311,25.1481496 89.6168354,28.7627265 C90.4873397,32.3773035 90.672248,37.4964766 91.9387431,42.4830899 C93.2052381,47.4697032 94.6828157,47.0213639 94.6828157,43.8551262 C94.6828157,40.6888885 94.5511002,36.783862 95.3160633,33.089918 C96.0810263,29.3959741 98.6406128,30.3196712 99.5377135,32.667753 C100.434814,35.0158349 98.3505855,40.2139529 98.904466,42.4830899 C99.4583465,44.7522269 101.104368,45.5450528 101.75408,41.7443011 C102.403792,37.9435493 101.187112,30.3416237 101.187112,30.3416237 C101.187112,30.3416237 102.087168,29.421304 102.809492,29.5015153 C103.531817,29.5817267 104.075988,30.6624692 104.075988,30.6624692 C104.075988,30.6624692 106.582803,39.4223934 105.025859,44.593915 C103.468914,49.7654366 99.8015667,45.675924 97.8490534,51.3485554 C95.8965402,57.0211869 96.2659346,66.5464963 96.2659346,66.5464963 C96.2659346,66.5464963 94.4717332,67.1535696 93.2052381,66.9686614 C92.4194115,66.8341335 91.7079024,66.4222072 91.1999543,65.8077075 C91.1999543,65.8077075 93.3373758,58.4198196 93.2052381,54.0926281 C93.0731005,49.7654366 91.8597982,51.4540967 90.2500829,49.2377303 C89.2362959,47.8056837 88.4198202,46.2437302 87.8226341,44.593915 C87.8226341,44.593915 86.2395152,32.8699701 86.1339739,30.3416237 Z" fill="#F5F5F5" fill-rule="nonzero"/>
    <path d="M19.9072577,44.6305344 C19.9807144,42.8088923 18.0885708,40.889308 17.4823418,43.4932218 C16.8761128,46.0971357 15.8658719,47.0630493 15.8658719,47.0630493 C15.8658719,47.0630493 13.9555752,50.3327174 13.9555752,48.0530263 C13.9555752,45.7733351 14.0476072,44.476022 13.5148349,41.8146937 C12.9820626,39.1533654 11.2001041,39.8178531 10.575722,41.5094684 C9.95133991,43.2010836 11.4023211,45.4288485 11.0164623,47.0634715 C10.6306034,48.6980944 9.48484756,49.2688615 9.03270881,46.5311214 C8.58057007,43.7933812 9.42743311,38.3170565 9.42743311,38.3170565 C9.42743311,38.3170565 8.80051805,37.6538352 8.2977195,37.7099831 C7.79492096,37.7661311 7.41623893,38.5479807 7.41623893,38.5479807 C7.41623893,38.5479807 5.67100871,44.8585035 6.75470634,48.5836877 C7.83840396,52.3088719 10.3920802,49.3617379 11.7514516,53.4495618 C13.110823,57.5373857 12.8537245,64.3975674 12.8537245,64.3975674 C13.5373054,64.6369606 14.2611385,64.7402219 14.9843913,64.7015262 C15.5357278,64.6011515 16.0318478,64.3039596 16.3804911,63.8652173 C16.3804911,63.8652173 14.8927815,58.543405 14.9843913,55.4261384 C15.0760012,52.3088719 15.9211755,53.5263958 17.0416015,51.9289234 C17.7489214,50.892823 18.316691,49.7680715 18.7302616,48.5836877 C18.7302616,48.5836877 19.833801,46.4521765 19.9072577,44.6305344 Z" fill="#F5F5F5" fill-rule="nonzero"/>
    <path fill="url(#m31ob82bzc)" d="M8.75300469 29.2574742L40.6 23.0515817 40.6 71.1807761 36.9168895 68.5337245 10.1838398 51.5392762z" transform="translate(17.4)"/>
    <path fill="url(#w4dqrmry6d)" d="M40.6 23.0515817L70.7169172 31.2416212 70.7169172 69.6237043 40.6 64.735518z" transform="translate(17.4)"/>
    <g transform="translate(52.588664 31.241621)">
      <use fill="url(#nmbb1w124f)" xlink:href="#v0r1psya8e"/>
      <use fill="#CDCDCD" xlink:href="#ogxqnocmlg"/>
      <mask id="lr32c8lt5k" fill="#fff">
        <use xlink:href="#qij7t6zdkh"/>
      </mask>
      <use fill="url(#800rn45kdi)" xlink:href="#qij7t6zdkh"/>
      <path fill="#AFADAD" opacity=".51251363" filter="url(#sm6gwkinzj)" mask="url(#lr32c8lt5k)" transform="rotate(-17 23.328428 5.381987)" d="M23.3284281 -1.4180133599999998A25.6 6.8 0 1 0 23.3284281 12.18198664A25.6 6.8 0 1 0 23.3284281 -1.4180133599999998Z"/>
    </g>
    <path fill="url(#y9k31xf24l)" d="M8.75300469 29.873256L35.1886642 40.1590815 35.1886642 80.3614738 8.75300469 65.5936514z" transform="translate(17.4)"/>
    <path fill="url(#43wkac0p4m)" d="M8.75300469 29.2574742L2.15712624 44.4364194 28.7168034 55.8015475 35.1886642 39.4265898z" transform="translate(17.4)"/>
    <g transform="translate(17.4)">
      <use fill="#000" filter="url(#pxbebmucln)" xlink:href="#g03x2wpe1o"/>
      <use fill="url(#05ahw3hsyp)" xlink:href="#g03x2wpe1o"/>
    </g>
    <path d="M17.6828043,21.4850336 L17.6828043,21.4613923 C16.1853849,17.5154158 11.3127562,15.6633779 7.17553894,16.2320342 C10.2417235,14.4492313 15.3047487,13.9738734 17.6819599,16.707392 L17.6819599,16.7310332 C20.058749,14.0211559 25.1458376,14.4728725 28.1883809,16.2556754 C24.0511637,15.7089717 19.1793793,17.564387 17.6819599,21.4850336 L17.6828043,21.4850336 Z" fill="#E7E7E7" fill-rule="nonzero" opacity=".65" transform="translate(17.4)"/>
    <path d="M5.04444989,7.44340265 L5.04444989,7.43115986 C4.32676935,5.53648323 1.98586428,4.64487069 2.7533531e-13,4.92012229 C1.47251161,4.06397162 3.90333783,3.83600251 5.04487206,5.14851357 L5.04487206,5.15991203 C6.18471763,3.85879942 8.62863096,4.07579224 10.0897441,4.93152075 C8.10556849,4.6689341 5.76424126,5.55928014 5.04487206,7.44255832 L5.04444989,7.44340265 Z" fill="#E7E7E7" fill-rule="nonzero" opacity=".65" transform="translate(17.4)"/>
    <path d="M31.7814275,11.9428375 L31.7814275,11.9348164 C31.2828506,10.621461 29.6613147,10.0046779 28.2846346,10.19423 C29.3050074,9.6010881 30.9902902,9.44277621 31.7814275,10.3525418 L31.7814275,10.360563 C32.5725647,9.45881848 34.2654465,9.60910923 35.2782204,10.2022511 C33.9015402,10.020298 32.2808487,10.6375032 31.7814275,11.9428375 L31.7814275,11.9428375 Z" fill="#E7E7E7" fill-rule="nonzero" opacity=".35" transform="translate(17.4)"/>
    <path d="M24.604622,2.2330419 L24.604622,2.22502077 C24.1060451,0.911665373 22.4845093,0.29488227 21.1078291,0.484434367 C22.128202,-0.108707494 23.8134848,-0.267019379 24.604622,0.642746252 L24.604622,0.650767387 C25.3957593,-0.250977108 27.088641,-0.100686359 28.1014149,0.492455502 C26.7247348,0.310502376 25.1040433,0.927707644 24.604622,2.2330419 L24.604622,2.2330419 Z" fill="#E7E7E7" fill-rule="nonzero" opacity=".35" transform="translate(17.4)"/>
    <path d="M43.7958219,6.61427054 L43.7958219,6.60878239 C43.4504909,5.6985946 42.3258433,5.27051926 41.3717504,5.40223475 C42.0792989,4.99104602 43.2474296,4.88128311 43.7958219,5.51199766 L43.7958219,5.5174858 C44.3446365,4.8922594 45.5178331,4.99653416 46.2198935,5.4077229 C45.2658005,5.28107339 44.1411529,5.70957089 43.7958219,6.61427054 Z" fill="#E7E7E7" fill-rule="nonzero" opacity=".35" transform="translate(17.4)"/>
    <use fill="#D0CECE" xlink:href="#x1ra8327cq"/>
    <use fill="#D0CECE" xlink:href="#ai019daaxr"/>
    <use fill="#D0CECE" xlink:href="#atyk77x6ts"/>
  </g>
</svg>
