<?xml version="1.0" encoding="UTF-8"?>
<svg xmlns="http://www.w3.org/2000/svg" xmlns:xlink="http://www.w3.org/1999/xlink" width="140px" height="130px" viewBox="0 0 140 130" version="1.1">
  <title>优惠券为空</title>
  <defs>
    <linearGradient x1="51.6655128%" y1="-3.93615918%" x2="51.6655128%" y2="60.7356056%" id="linearGradient-1">
      <stop stop-color="#C3C3C3" offset="0%"></stop>
      <stop stop-color="#FFFFFF" stop-opacity="0.0712958916" offset="100%"></stop>
    </linearGradient>
    <filter x="0.0%" y="0.0%" width="100.0%" height="100.0%" filterUnits="objectBoundingBox" id="filter-2">
      <feGaussianBlur stdDeviation="0" in="SourceGraphic"></feGaussianBlur>
    </filter>
    <linearGradient x1="42.8704548%" y1="77.3457836%" x2="50%" y2="38.9962076%" id="linearGradient-3">
      <stop stop-color="#B8B8B8" offset="0%"></stop>
      <stop stop-color="#DFDFDF" offset="100%"></stop>
    </linearGradient>
  </defs>
  <g id="页面-1" stroke="none" stroke-width="1" fill="none" fill-rule="evenodd">
    <g id="优惠券为空" transform="translate(-117.000000, -255.000000)">
      <g id="购物车空状态" transform="translate(117.000000, 255.750000)">
        <ellipse id="椭圆形" fill="url(#linearGradient-1)" filter="url(#filter-2)" cx="70" cy="103.625" rx="70" ry="25.625"></ellipse>
        <path d="M113.667467,46.1770297 C113.535541,43.016069 116.932914,39.685187 118.021044,44.2034082 C119.109175,48.7216294 119.34031,55.1205957 120.923429,61.3538623 C122.506548,67.5871289 124.35352,67.0267049 124.35352,63.0689078 C124.35352,59.1111106 124.188875,54.2298275 125.145079,49.6123976 C126.101283,44.9949676 129.300766,46.1495889 130.422142,49.0846913 C131.543518,52.0197936 128.938232,58.5174411 129.630582,61.3538623 C130.322933,64.1902836 132.38046,65.181316 133.1926,60.4303763 C134.00474,55.6794367 132.48389,46.1770297 132.48389,46.1770297 C132.48389,46.1770297 133.60896,45.02663 134.511866,45.1268942 C135.414771,45.2271584 136.094984,46.5780864 136.094984,46.5780864 C136.094984,46.5780864 139.228504,57.5279918 137.282324,63.9923937 C135.336143,70.4567957 130.751958,65.3449049 128.311317,72.4356943 C125.870675,79.5264836 126.332418,91.4331204 126.332418,91.4331204 C126.332418,91.4331204 124.089667,92.1919621 122.506548,91.9608267 C121.524264,91.7926669 120.634878,91.277759 119.999943,90.5096344 C119.999943,90.5096344 122.67172,81.2747745 122.506548,75.8657851 C122.341376,70.4567957 120.824748,72.5676208 118.812604,69.7971629 C117.54537,68.0071047 116.524775,66.0546627 115.778293,63.9923937 C115.778293,63.9923937 113.799394,49.3374626 113.667467,46.1770297 Z" id="路径" fill="#D3D3D3" fill-rule="nonzero"></path>
        <path d="M24.8840721,62.038168 C24.975893,59.7611154 22.6107135,57.3616349 21.8529273,60.6165273 C21.095141,63.8714196 19.8323399,65.0788116 19.8323399,65.0788116 C19.8323399,65.0788116 17.444469,69.1658968 17.444469,66.3162828 C17.444469,63.4666689 17.5595089,61.8450275 16.8935436,58.5183671 C16.2275783,55.1917067 14.0001301,56.0223164 13.2196525,58.1368355 C12.4391749,60.2513545 14.2529014,63.0360606 13.7705778,65.0793393 C13.2882543,67.122618 11.8560594,67.8360769 11.290886,64.4139017 C10.7257126,60.9917265 11.7842914,54.1463206 11.7842914,54.1463206 C11.7842914,54.1463206 11.0006476,53.317294 10.3721494,53.3874789 C9.7436512,53.4576639 9.27029866,54.4349759 9.27029866,54.4349759 C9.27029866,54.4349759 7.08876089,62.3231294 8.44338292,66.9796096 C9.79800495,71.6360899 12.9901002,67.9521723 14.6893145,73.0619522 C16.3885287,78.1717322 16.0671556,86.7469593 16.0671556,86.7469593 C16.9216318,87.0462007 17.8264231,87.1752774 18.7304892,87.1269078 C19.4196598,87.0014394 20.0398097,86.6299495 20.4756139,86.0815216 C20.4756139,86.0815216 18.6159769,79.4292562 18.7304892,75.5326731 C18.8450014,71.6360899 19.9014694,73.1579948 21.3020019,71.1611542 C22.1861518,69.8660287 22.8958637,68.4600893 23.412827,66.9796096 C23.412827,66.9796096 24.7922512,64.3152206 24.8840721,62.038168 Z" id="路径" fill="#D3D3D3" fill-rule="nonzero"></path>
        <path d="M102.000011,39.2500755 C104.20915,39.2500755 106.000011,41.0409365 106.000011,43.2500755 L106.000236,44.451286 C105.989854,44.4511954 105.979461,44.4511501 105.969058,44.4511501 C104.036062,44.4511501 102.469058,46.0181534 102.469058,47.9511501 C102.469058,49.8841467 104.036062,51.4511501 105.969058,51.4511501 L105.999238,51.4500755 L105.999068,56.2155019 C104.443047,56.5711153 103.282094,57.9637692 103.282094,59.6275781 C103.282094,61.2913871 104.443047,62.6840409 105.999068,63.0396543 L105.999721,67.585673 C104.369458,67.8840389 103.133868,69.3119101 103.133868,71.0283689 C103.133868,72.7448276 104.369458,74.1726988 105.999721,74.4710647 L106.000011,75.2500755 C106.000011,77.4592145 104.20915,79.2500755 102.000011,79.2500755 L40.0000106,79.2500755 C37.7908716,79.2500755 36.0000106,77.4592145 36.0000106,75.2500755 L35.9996222,74.0488635 C36.0100583,74.048955 36.0205053,74.0490009 36.0309631,74.0490009 C37.9639597,74.0490009 39.5309631,72.4819975 39.5309631,70.5490009 C39.5309631,68.6160043 37.9639597,67.0490009 36.0309631,67.0490009 L35.9992377,67.0490755 L35.9991418,62.6436591 C36.058776,62.6466809 36.1188039,62.6482102 36.1791889,62.6482102 C38.1121855,62.6482102 39.6791889,61.0812068 39.6791889,59.1482102 C39.6791889,57.2152135 38.1121855,55.6482102 36.1791889,55.6482102 L35.9992377,55.6530755 L35.9988547,51.2322005 C36.1070215,51.2422711 36.2166169,51.2474194 36.3274147,51.2474194 C38.2604114,51.2474194 39.8274147,49.6804161 39.8274147,47.7474194 C39.8274147,45.8144228 38.2604114,44.2474194 36.3274147,44.2474194 C36.2166169,44.2474194 36.1070215,44.2525678 35.9988547,44.2626384 L36.0000106,43.2500755 C36.0000106,41.0409365 37.7908716,39.2500755 40.0000106,39.2500755 L102.000011,39.2500755 Z" id="形状结合" fill="#C7C7C7" transform="translate(70.999737, 59.250075) rotate(-8.000000) translate(-70.999737, -59.250075) "></path>
        <path d="M107,44.25 C109.209139,44.25 111,46.040861 111,48.25 L111,50 L111,50 C108.790861,50 107,51.790861 107,54 C107,56.209139 108.790861,58 111,58 L111,63 L111,63 C108.790861,63 107,64.790861 107,67 C107,69.209139 108.790861,71 111,71 L111,76 L111,76 C108.790861,76 107,77.790861 107,80 C107,82.209139 108.790861,84 111,84 L111,86.25 C111,88.459139 109.209139,90.25 107,90.25 L34,90.25 C31.790861,90.25 30,88.459139 30,86.25 L30,84 L30,84 C32.209139,84 34,82.209139 34,80 C34,77.790861 32.209139,76 30,76 L30,71 L30,71 C32.209139,71 34,69.209139 34,67 C34,64.790861 32.209139,63 30,63 L30,58 L30,58 C32.209139,58 34,56.209139 34,54 C34,51.790861 32.209139,50 30,50 L30,48.25 C30,46.040861 31.790861,44.25 34,44.25 L107,44.25 Z" id="形状结合" fill="url(#linearGradient-3)"></path>
        <path d="M70.452,80.216 C71.2413333,80.216 71.7533333,80.0773333 71.988,79.8 C72.2226667,79.5226667 72.34,78.968 72.34,78.136 L72.34,78.136 L72.34,74.424 L76.852,74.424 C78.0466667,74.424 78.644,73.8373333 78.644,72.664 C78.644,71.4693333 78.0466667,70.872 76.852,70.872 L76.852,70.872 L72.34,70.872 L72.34,69.24 L76.852,69.24 C78.0466667,69.24 78.644,68.6533333 78.644,67.48 C78.644,66.2853333 78.0466667,65.688 76.852,65.688 L76.852,65.688 L74.388,65.688 L78.228,59.32 C78.5693333,58.7226667 78.7186667,58.2373333 78.676,57.864 C78.6333333,57.4906667 78.3453333,57.1333333 77.812,56.792 C77.5773333,56.6426667 77.3533333,56.52 77.14,56.424 C76.9266667,56.328 76.7133333,56.296 76.5,56.328 C76.2866667,56.36 76.0786667,56.4666667 75.876,56.648 C75.6733333,56.8293333 75.4546667,57.112 75.22,57.496 C74.4306667,58.84 73.6413333,60.1786667 72.852,61.512 L71.668,63.516 L71.668,63.516 L70.484,65.528 L65.62,57.4 C65.236,56.76 64.836,56.408 64.42,56.344 C64.004,56.28 63.5506667,56.4186667 63.06,56.76 C62.6333333,57.0586667 62.372,57.4213333 62.276,57.848 C62.18,58.2746667 62.3026667,58.7653333 62.644,59.32 C63.284,60.3653333 63.9346667,61.4266667 64.596,62.504 C65.2573333,63.5813333 65.908,64.6426667 66.548,65.688 L66.548,65.688 L64.02,65.688 C62.868,65.688 62.292,66.2853333 62.292,67.48 C62.292,68.6533333 62.8893333,69.24 64.084,69.24 L64.084,69.24 L68.532,69.24 L68.532,70.872 L64.02,70.872 C62.868,70.872 62.292,71.4693333 62.292,72.664 C62.292,73.8373333 62.8893333,74.424 64.084,74.424 L64.084,74.424 L68.532,74.424 L68.532,78.136 C68.532,78.968 68.6813333,79.5226667 68.98,79.8 C69.2786667,80.0773333 69.7693333,80.216 70.452,80.216 Z" id="¥" fill="#FFFFFF" fill-rule="nonzero"></path>
        <g id="编组" transform="translate(30.750000, 12.583003)" fill-rule="nonzero">
          <path d="M76.3663749,18.5232889 L76.3663749,18.5021458 C75.0271895,14.9731449 70.6694567,13.3168138 66.9694237,13.8253796 C69.7116012,12.2309674 74.239611,11.8058411 76.3656198,14.2505058 L76.3656198,14.2716489 C78.491251,11.8481272 83.0407815,12.2521104 85.761816,13.8465226 C82.0617829,13.3575897 77.7048052,15.0169412 76.3656198,18.5232889 L76.3663749,18.5232889 Z" id="路径" fill="#D0D0D0"></path>
          <path d="M6.30556236,11.9712502 L6.30556236,11.9559467 C5.40846169,9.58760095 2.48233035,8.47308528 -1.24789068e-12,8.81714977 C1.84063951,7.74696143 4.87917228,7.46200004 6.30609007,9.10263887 L6.30609007,9.11688694 C7.73089703,7.49049618 10.7857887,7.76173721 12.6121801,8.83139784 C10.1319606,8.50316454 7.20530158,9.61609708 6.30609007,11.9701948 L6.30556236,11.9712502 Z" id="路径" fill="#D0D0D0" opacity="0.793763626"></path>
          <path d="M22.7267843,22.5955438 L22.7267843,22.5855174 C22.1035632,20.9438231 20.0766434,20.1728442 18.3557932,20.4097844 C19.6312593,19.668357 21.7378628,19.4704672 22.7267843,20.6076742 L22.7267843,20.6177006 C23.7157059,19.49052 25.8318081,19.6783834 27.0977755,20.4198108 C25.3769253,20.1923694 23.3510609,20.963876 22.7267843,22.5955438 L22.7267843,22.5955438 Z" id="路径" fill="#D0D0D0"></path>
          <path d="M50.7557775,12.4582993 L50.7557775,12.4482729 C50.1325564,10.8065786 48.1056366,10.0355997 46.3847864,10.2725399 C47.6602525,9.53111254 49.766856,9.33322269 50.7557775,10.4704297 L50.7557775,10.4804561 C51.7446991,9.35327552 53.8608013,9.54113896 55.1267687,10.2825663 C53.4059185,10.0551249 51.3800541,10.8266315 50.7557775,12.4582993 L50.7557775,12.4582993 Z" id="路径" fill="#D0D0D0" opacity="0.396984012"></path>
          <path d="M105.744777,1.93483508 L105.744777,1.9279749 C105.313114,0.790240157 103.907304,0.255145987 102.714688,0.419790347 C103.599124,-0.0941955714 105.059287,-0.231399205 105.744777,0.556993981 L105.744777,0.563854162 C106.430796,-0.217678841 107.897291,-0.0873353897 108.774867,0.426650529 C107.582251,0.268338644 106.176441,0.803960521 105.744777,1.93483508 Z" id="路径" fill="#E7E7E7" opacity="0.35"></path>
        </g>
      </g>
    </g>
  </g>
</svg>
