<?xml version="1.0" encoding="UTF-8"?>
<svg width="80px" height="80px" viewBox="0 0 80 80" version="1.1" xmlns="http://www.w3.org/2000/svg" xmlns:xlink="http://www.w3.org/1999/xlink">
    <title>编组 5</title>
    <defs>
        <filter x="-62.5%" y="-24.7%" width="225.0%" height="149.5%" filterUnits="objectBoundingBox" id="filter-1">
            <feGaussianBlur stdDeviation="4" in="SourceGraphic"></feGaussianBlur>
        </filter>
        <linearGradient x1="35.7201218%" y1="6.21458505%" x2="50%" y2="100%" id="linearGradient-2">
            <stop stop-color="#F9F9F9" offset="0%"></stop>
            <stop stop-color="#D8D8D8" offset="100%"></stop>
        </linearGradient>
    </defs>
    <g id="页面-1" stroke="none" stroke-width="1" fill="none" fill-rule="evenodd" opacity="0.698514717">
        <g id="小程序-直播-商品清单备份" transform="translate(-147.000000, -426.000000)">
            <g id="弹出层-/-基础样式-/-无分隔线-/-普通" transform="translate(0.000000, 295.000000)">
                <g id="编组-5" transform="translate(147.000000, 131.000000)">
                    <path d="M25.6624258,25.207614 L54.1257193,25.207614 C56.3348583,25.207614 58.1257193,26.998475 58.1257193,29.207614 L58.1257193,79.6624258 C58.1257193,81.8715648 56.3348583,83.6624258 54.1257193,83.6624258 L25.6624258,83.6624258 C23.4532868,83.6624258 21.6624258,81.8715648 21.6624258,79.6624258 L21.6624258,29.207614 C21.6624258,26.998475 23.4532868,25.207614 25.6624258,25.207614 Z" id="矩形" fill="#BEBCBC" transform="translate(39.894073, 54.435020) rotate(-90.000000) translate(-39.894073, -54.435020) "></path>
                    <g id="编组-2" transform="translate(49.501920, 35.974488) rotate(23.000000) translate(-49.501920, -35.974488) translate(33.840371, 18.737295)">
                        <rect id="矩形" fill="#F6F6F6" transform="translate(15.661548, 17.237193) rotate(-360.000000) translate(-15.661548, -17.237193) " x="7.0797685e-15" y="0" width="31.323097" height="34.4743866" rx="4"></rect>
                        <rect id="矩形" fill="#D8D8D8" x="5.0573126" y="11.8308419" width="21.2562952" height="2.65187589" rx="1.32593795"></rect>
                        <rect id="矩形备份-4" fill="#D8D8D8" x="4.40961864" y="18.109956" width="12.6209253" height="10.6075036" rx="2"></rect>
                        <rect id="矩形备份" fill="#D8D8D8" x="5.0573126" y="6.52709012" width="21.2562952" height="2.65187589" rx="1.32593795"></rect>
                    </g>
                    <path d="M44.2087449,20.4185809 L33.0611147,45.025024 C33.0611147,57.976915 33.0611147,64.4528606 33.0611147,64.4528606 C33.0611147,64.4528606 34.5472675,65.9417532 37.519573,68.9195383 L46.8606208,68.9195383 C44.6507242,53.9134399 43.5457759,45.9486018 43.5457759,45.025024 C43.5457759,44.1014461 46.4506499,38.3832024 52.2603979,27.8702928 L50.6214484,22.8163082 L44.2087449,20.4185809 Z" id="路径-6" fill="#767575" opacity="0.512218387" filter="url(#filter-1)" transform="translate(42.660756, 44.669060) rotate(-90.000000) translate(-42.660756, -44.669060) "></path>
                    <path d="M56.1539789,23.2754781 C58.3631179,23.2754781 60.1539789,25.0663391 60.1539789,27.2754781 L60.1531662,39.5004781 L52.7248346,44.1728463 C51.6254201,44.8642824 50.9342511,46.0433098 50.8608479,47.330647 L50.8543498,47.5588713 L50.8543498,81.6167478 L23.6341662,81.6167478 C21.4250272,81.6167478 19.6341662,79.8258868 19.6341662,77.6167478 L19.6341662,27.2754781 C19.6341662,25.0663391 21.4250272,23.2754781 23.6341662,23.2754781 L56.1539789,23.2754781 Z" id="形状结合" fill="url(#linearGradient-2)" transform="translate(39.894073, 52.446113) rotate(-90.000000) translate(-39.894073, -52.446113) "></path>
                </g>
            </g>
        </g>
    </g>
</svg>