<svg xmlns="http://www.w3.org/2000/svg" viewBox="0 0 140 130" class="design-iconfont">
  <defs>
    <linearGradient x1="51.6655128%" y1="-15.6298379%" x2="51.6655128%" y2="60.7356056%" id="wjgsd8nq2a">
      <stop stop-color="#C3C3C3" offset="0%"/>
      <stop stop-color="#FFF" stop-opacity=".07129589" offset="100%"/>
    </linearGradient>
    <linearGradient x1="-117.986734%" y1="86.3167796%" x2="53.4001116%" y2="50%" id="dk0tvs0b0c">
      <stop stop-color="#CBCBCB" offset="0%"/>
      <stop stop-color="#EAEAEA" offset="100%"/>
    </linearGradient>
    <filter x="0%" y="0%" width="100%" height="100%" filterUnits="objectBoundingBox" id="5l36tcorxb">
      <feGaussianBlur in="SourceGraphic"/>
    </filter>
  </defs>
  <g transform="translate(0 -3.666997)" fill="none" fill-rule="evenodd">
    <path fill="url(#wjgsd8nq2a)" filter="url(#5l36tcorxb)" d="M70 82.416997A70 25.625 0 1 0 70 133.66699699999998A70 25.625 0 1 0 70 82.416997Z"/>
    <path d="M113.667467,50.5940266 C113.535541,47.4330659 116.932914,44.1021839 118.021044,48.6204051 C119.109175,53.1386263 119.34031,59.5375926 120.923429,65.7708592 C122.506548,72.0041259 124.35352,71.4437018 124.35352,67.4859047 C124.35352,63.5281075 124.188875,58.6468244 125.145079,54.0293945 C126.101283,49.4119645 129.300766,50.5665858 130.422142,53.5016882 C131.543518,56.4367905 128.938232,62.934438 129.630582,65.7708592 C130.322933,68.6072805 132.38046,69.5983129 133.1926,64.8473733 C134.00474,60.0964336 132.48389,50.5940266 132.48389,50.5940266 C132.48389,50.5940266 133.60896,49.4436269 134.511866,49.5438911 C135.414771,49.6441553 136.094984,50.9950833 136.094984,50.9950833 C136.094984,50.9950833 139.228504,61.9449887 137.282324,68.4093907 C135.336143,74.8737926 130.751958,69.7619019 128.311317,76.8526912 C125.870675,83.9434805 126.332418,95.8501173 126.332418,95.8501173 C126.332418,95.8501173 124.089667,96.608959 122.506548,96.3778236 C121.524264,96.2096638 120.634878,95.694756 119.999943,94.9266313 C119.999943,94.9266313 122.67172,85.6917714 122.506548,80.282782 C122.341376,74.8737926 120.824748,76.9846177 118.812604,74.2141598 C117.54537,72.4241016 116.524775,70.4716597 115.778293,68.4093907 C115.778293,68.4093907 113.799394,53.7544595 113.667467,50.5940266 Z" fill="#D3D3D3" fill-rule="nonzero"/>
    <path d="M24.8840721,66.4551649 C24.975893,64.1781123 22.6107135,61.7786318 21.8529273,65.0335242 C21.095141,68.2884165 19.8323399,69.4958085 19.8323399,69.4958085 C19.8323399,69.4958085 17.444469,73.5828937 17.444469,70.7332797 C17.444469,67.8836658 17.5595089,66.2620244 16.8935436,62.935364 C16.2275783,59.6087036 14.0001301,60.4393133 13.2196525,62.5538324 C12.4391749,64.6683514 14.2529014,67.4530575 13.7705778,69.4963362 C13.2882543,71.5396149 11.8560594,72.2530738 11.290886,68.8308986 C10.7257126,65.4087234 11.7842914,58.5633175 11.7842914,58.5633175 C11.7842914,58.5633175 11.0006476,57.7342909 10.3721494,57.8044758 C9.7436512,57.8746608 9.27029866,58.8519728 9.27029866,58.8519728 C9.27029866,58.8519728 7.08876089,66.7401263 8.44338292,71.3966065 C9.79800495,76.0530868 12.9901002,72.3691692 14.6893145,77.4789492 C16.3885287,82.5887291 16.0671556,91.1639562 16.0671556,91.1639562 C16.9216318,91.4631976 17.8264231,91.5922743 18.7304892,91.5439047 C19.4196598,91.4184363 20.0398097,91.0469464 20.4756139,90.4985185 C20.4756139,90.4985185 18.6159769,83.8462532 18.7304892,79.94967 C18.8450014,76.0530868 19.9014694,77.5749917 21.3020019,75.5781511 C22.1861518,74.2830256 22.8958637,72.8770862 23.412827,71.3966065 C23.412827,71.3966065 24.7922512,68.7322175 24.8840721,66.4551649 Z" fill="#D3D3D3" fill-rule="nonzero"/>
    <path d="M106,32.6669969 C108.209139,32.6669969 110,34.4578579 110,36.6669969 L110,87.6669969 C110,89.8761359 108.209139,91.6669969 106,91.6669969 L35,91.6669969 C32.790861,91.6669969 31,89.8761359 31,87.6669969 L31,82.6669969 L31,82.6669969 C33.7614237,82.6669969 36,80.4284207 36,77.6669969 C36,74.9055732 33.7614237,72.6669969 31,72.6669969 L31,66.6669969 L31,66.6669969 C33.7614237,66.6669969 36,64.4284207 36,61.6669969 C36,58.9055732 33.7614237,56.6669969 31,56.6669969 L31,49.6669969 L31,49.6669969 C33.7614237,49.6669969 36,47.4284207 36,44.6669969 C36,41.9055732 33.7614237,39.6669969 31,39.6669969 L31,36.6669969 C31,34.4578579 32.790861,32.6669969 35,32.6669969 L106,32.6669969 Z" fill="url(#dk0tvs0b0c)" transform="rotate(-90 70.5 62.166997)"/>
    <rect fill="#CDCDCD" opacity=".71709212" x="50" y="34" width="20" height="5" rx="2.5"/>
    <rect fill="#CDCDCD" opacity=".71709212" x="50" y="48" width="42" height="5" rx="2.5"/>
    <rect fill="#CDCDCD" opacity=".71709212" x="50" y="60" width="16" height="5" rx="2.5"/>
    <rect fill="#CDCDCD" opacity=".71709212" x="50" y="72" width="35" height="5" rx="2.5"/>
    <g fill="#D0D0D0" fill-rule="nonzero">
      <path d="M14.0105817,22.5232889 L14.0105817,22.5021458 C12.6713963,18.9731449 8.31366352,17.3168138 4.61363048,17.8253796 C7.35580803,16.2309674 11.8838178,15.8058411 14.0098266,18.2505058 L14.0098266,18.2716489 C16.1354578,15.8481272 20.6849883,16.2521104 23.4060228,17.8465226 C19.7059897,17.3575897 15.349012,19.0169412 14.0098266,22.5232889 L14.0105817,22.5232889 Z" transform="translate(22.105793)"/>
      <path d="M89.9497692,33.9712502 L89.9497692,33.9559467 C89.0526685,31.5876009 86.1265372,30.4730853 83.6442068,30.8171498 C85.4848463,29.7469614 88.5233791,29.462 89.9502969,31.1026389 L89.9502969,31.1168869 C91.3751038,29.4904962 94.4299955,29.7617372 96.2563869,30.8313978 C93.7761674,30.5031645 90.8495084,31.6160971 89.9502969,33.9701948 L89.9497692,33.9712502 Z" opacity=".79376363" transform="translate(22.105793)"/>
      <path d="M4.37099113,46.5955438 L4.37099113,46.5855174 C3.74777002,44.9438231 1.72085019,44.1728442 -4.156675e-13,44.4097844 C1.27546608,43.668357 3.38206956,43.4704672 4.37099113,44.6076742 L4.37099113,44.6177006 C5.35991271,43.49052 7.4760149,43.6783834 8.74198227,44.4198108 C7.02113208,44.1923694 4.99526767,44.963876 4.37099113,46.5955438 L4.37099113,46.5955438 Z" transform="translate(22.105793)"/>
      <path d="M71.3999843,16.4582993 L71.3999843,16.4482729 C70.7767632,14.8065786 68.7498434,14.0355997 67.0289932,14.2725399 C68.3044593,13.5311125 70.4110628,13.3332227 71.3999843,14.4704297 L71.3999843,14.4804561 C72.3889059,13.3532755 74.5050081,13.541139 75.7709755,14.2825663 C74.0501253,14.0551249 72.0242609,14.8266315 71.3999843,16.4582993 L71.3999843,16.4582993 Z" opacity=".39698401" transform="translate(22.105793)"/>
    </g>
  </g>
</svg>
