<svg xmlns="http://www.w3.org/2000/svg" xmlns:xlink="http://www.w3.org/1999/xlink" viewBox="0 0 140 130" class="design-iconfont">
  <defs>
    <linearGradient x1="51.6655128%" y1="0%" x2="51.6655128%" y2="60.7356056%" id="ziaka7auza">
      <stop stop-color="#C6C6C6" offset="0%"/>
      <stop stop-color="#FFF" stop-opacity=".07129589" offset="100%"/>
    </linearGradient>
    <linearGradient x1="27.8920443%" y1="8.72431564%" x2="61.8651552%" y2="95.8319806%" id="7c16av5zee">
      <stop stop-color="#F8F8F8" offset="0%"/>
      <stop stop-color="#E5E3E3" offset="100%"/>
    </linearGradient>
    <linearGradient x1="28.0758114%" y1="0%" x2="51.7454599%" y2="100%" id="f095rl7gyh">
      <stop stop-color="#EAEAEA" offset="0%"/>
      <stop stop-color="#BBBABA" offset="100%"/>
    </linearGradient>
    <linearGradient x1="50%" y1="7.64735622%" x2="50%" y2="100%" id="8hk9j3fhkk">
      <stop stop-color="#E8E8E8" offset="0%"/>
      <stop stop-color="#E3E3E3" offset="60.6056599%"/>
      <stop stop-color="#CECECE" offset="100%"/>
    </linearGradient>
    <filter x="0%" y="0%" width="100%" height="100%" filterUnits="objectBoundingBox" id="ge2jto7wsb">
      <feGaussianBlur in="SourceGraphic"/>
    </filter>
    <filter x="-6.7%" y="-5.3%" width="113.3%" height="110.7%" filterUnits="objectBoundingBox" id="efuv3pryzg">
      <feMorphology radius="4" in="SourceAlpha" result="shadowSpreadInner1"/>
      <feGaussianBlur stdDeviation="2" in="shadowSpreadInner1" result="shadowBlurInner1"/>
      <feOffset in="shadowBlurInner1" result="shadowOffsetInner1"/>
      <feComposite in="shadowOffsetInner1" in2="SourceAlpha" operator="arithmetic" k2="-1" k3="1" result="shadowInnerInner1"/>
      <feColorMatrix values="0 0 0 0 0.464645607 0 0 0 0 0.464645607 0 0 0 0 0.464645607 0 0 0 0.253551136 0" in="shadowInnerInner1"/>
    </filter>
    <filter x="-23.3%" y="-27.8%" width="146.7%" height="177.8%" filterUnits="objectBoundingBox" id="h7w6lxidei">
      <feOffset dy="2" in="SourceAlpha" result="shadowOffsetOuter1"/>
      <feGaussianBlur stdDeviation="2" in="shadowOffsetOuter1" result="shadowBlurOuter1"/>
      <feColorMatrix values="0 0 0 0 0.531646286 0 0 0 0 0.531646286 0 0 0 0 0.531646286 0 0 0 0.10033326 0" in="shadowBlurOuter1"/>
    </filter>
    <path d="M95.9480063,83.3714221 L102.276864,81.727435 C102.592234,81.6455144 102.914301,81.8347624 102.996222,82.1501322 C103.008805,82.1985718 103.015173,82.2484155 103.015173,82.2984627 C103.015173,82.7501455 102.716165,83.1472704 102.282079,83.2721167 L95.9420377,85.0955587 C95.5931694,85.1958957 95.2290166,84.9944213 95.1286795,84.6455531 C95.1116923,84.5864892 95.1030728,84.5253349 95.1030728,84.4638768 C95.1030728,83.9498019 95.450444,83.5006691 95.9480063,83.3714221 Z" id="pmurm0h21c"/>
    <path d="M95.9424151,87.100926 L107.65927,83.7509584 C107.964749,83.6636189 108.283191,83.8404557 108.37053,84.1459343 C108.385234,84.1973617 108.392694,84.2505883 108.392694,84.3040763 C108.392694,84.7570444 108.096122,85.1565971 107.662555,85.2877462 L95.938656,88.8340964 C95.5961181,88.9377103 95.2344407,88.7440242 95.1308268,88.4014863 C95.1124243,88.3406495 95.1030728,88.277436 95.1030728,88.2138768 C95.1030728,87.6971328 95.4455791,87.2429764 95.9424151,87.100926 Z" id="a6nigehc0d"/>
    <path d="M71.0180707,6.25 C75.017374,6.25 78.25945,9.38400675 78.25945,13.25 L78.25945,13.25 L85.5353121,13.25 C86.0875968,13.25 86.5353121,13.6977153 86.5353121,14.25 L86.5353121,23.25 C86.5353121,23.8022847 86.0875968,24.25 85.5353121,24.25 L57.5353121,24.25 C56.9830273,24.25 56.5353121,23.8022847 56.5353121,23.25 L56.5353121,14.25 C56.5353121,13.6977153 56.9830273,13.25 57.5353121,13.25 L63.7766914,13.25 C63.7766914,9.38400675 67.0187673,6.25 71.0180707,6.25 Z" id="4meqvspt4j"/>
    <rect id="9b67zaofif" x="41.5353121" y="16.25" width="60" height="75" rx="4"/>
  </defs>
  <g transform="translate(-1.535312 .75)" fill="none" fill-rule="evenodd">
    <path fill="url(#ziaka7auza)" filter="url(#ge2jto7wsb)" d="M71.5353121 78A70 25.625 0 1 0 71.5353121 129.25A70 25.625 0 1 0 71.5353121 78Z"/>
    <path d="M109.202779,44.1770297 C109.070853,41.016069 112.468226,37.685187 113.556356,42.2034082 C114.644487,46.7216294 114.875622,53.1205957 116.458741,59.3538623 C118.04186,65.5871289 119.888832,65.0267049 119.888832,61.0689078 C119.888832,57.1111106 119.724187,52.2298275 120.680391,47.6123976 C121.636595,42.9949676 124.836078,44.1495889 125.957454,47.0846913 C127.07883,50.0197936 124.473544,56.5174411 125.165895,59.3538623 C125.858245,62.1902836 127.915772,63.181316 128.727912,58.4303763 C129.540052,53.6794367 128.019202,44.1770297 128.019202,44.1770297 C128.019202,44.1770297 129.144272,43.02663 130.047178,43.1268942 C130.950083,43.2271584 131.630296,44.5780864 131.630296,44.5780864 C131.630296,44.5780864 134.763816,55.5279918 132.817636,61.9923937 C130.871455,68.4567957 126.28727,63.3449049 123.846629,70.4356943 C121.405987,77.5264836 121.86773,89.4331204 121.86773,89.4331204 C121.86773,89.4331204 119.624979,90.1919621 118.04186,89.9608267 C117.059576,89.7926669 116.17019,89.277759 115.535255,88.5096344 C115.535255,88.5096344 118.207032,79.2747745 118.04186,73.8657851 C117.876688,68.4567957 116.36006,70.5676208 114.347916,67.7971629 C113.080682,66.0071047 112.060087,64.0546627 111.313605,61.9923937 C111.313605,61.9923937 109.334706,47.3374626 109.202779,44.1770297 Z" fill="#D3D3D3" fill-rule="nonzero"/>
    <path d="M26.4193842,62.038168 C26.5112051,59.7611154 24.1460255,57.3616349 23.3882393,60.6165273 C22.6304531,63.8714196 21.367652,65.0788116 21.367652,65.0788116 C21.367652,65.0788116 18.979781,69.1658968 18.979781,66.3162828 C18.979781,63.4666689 19.094821,61.8450275 18.4288557,58.5183671 C17.7628903,55.1917067 15.5354421,56.0223164 14.7549645,58.1368355 C13.9744869,60.2513545 15.7882134,63.0360606 15.3058899,65.0793393 C14.8235664,67.122618 13.3913715,67.8360769 12.8261981,64.4139017 C12.2610247,60.9917265 13.3196035,54.1463206 13.3196035,54.1463206 C13.3196035,54.1463206 12.5359596,53.317294 11.9074614,53.3874789 C11.2789633,53.4576639 10.8056107,54.4349759 10.8056107,54.4349759 C10.8056107,54.4349759 8.62407296,62.3231294 9.97869498,66.9796096 C11.333317,71.6360899 14.5254123,67.9521723 16.2246265,73.0619522 C17.9238408,78.1717322 17.6024676,86.7469593 17.6024676,86.7469593 C18.4569438,87.0462007 19.3617352,87.1752774 20.2658012,87.1269078 C20.9549718,87.0014394 21.5751217,86.6299495 22.0109259,86.0815216 C22.0109259,86.0815216 20.151289,79.4292562 20.2658012,75.5326731 C20.3803135,71.6360899 21.4367815,73.1579948 22.837314,71.1611542 C23.7214639,69.8660287 24.4311758,68.4600893 24.9481391,66.9796096 C24.9481391,66.9796096 26.3275633,64.3152206 26.4193842,62.038168 Z" fill="#D3D3D3" fill-rule="nonzero"/>
    <use fill="#D0CECE" xlink:href="#pmurm0h21c"/>
    <use fill="#D0CECE" xlink:href="#a6nigehc0d"/>
    <use fill="url(#7c16av5zee)" xlink:href="#9b67zaofif"/>
    <use fill="#000" filter="url(#efuv3pryzg)" xlink:href="#9b67zaofif"/>
    <rect stroke="url(#f095rl7gyh)" stroke-width="4" stroke-linejoin="square" x="43.5353121" y="18.25" width="56" height="71" rx="4"/>
    <rect fill="#CDCDCD" opacity=".76630632" x="51.7853121" y="35" width="40" height="4" rx="2"/>
    <rect fill="#CDCDCD" opacity=".76630632" x="51.7853121" y="47" width="26" height="4" rx="2"/>
    <rect fill="#CDCDCD" opacity=".76630632" x="51.7853121" y="59" width="40" height="4" rx="2"/>
    <rect fill="#CDCDCD" opacity=".76630632" x="51.7853121" y="71" width="15" height="4" rx="2"/>
    <path d="M85.5686944,82.3362949 L85.2500359,82.6637033 C84.9301706,82.9923516 84.4044465,82.9994716 84.0757983,82.6796064 C83.965871,82.5726169 83.8877279,82.4372689 83.8500359,82.2885744 L83.7377737,81.8457011 C83.6020692,81.3103482 83.0580697,80.9863691 82.5227168,81.1220736 C82.5139652,81.124292 82.5052439,81.1266289 82.4965556,81.1290835 L82.0568849,81.2532983 C81.6155494,81.3779834 81.1566989,81.1212875 81.0320138,80.6799519 C80.9903088,80.5323327 80.9903088,80.3760463 81.0320138,80.2284271 L81.1562286,79.7887565 C81.3063815,79.257275 80.9972536,78.7047012 80.4657722,78.5545483 C80.4570838,78.5520936 80.4483626,78.5497568 80.4396109,78.5475384 L79.9967376,78.4352762 C79.5521872,78.3225889 79.2831591,77.8708585 79.3958464,77.4263081 C79.4335383,77.2776136 79.5116815,77.1422656 79.6216088,77.0352762 L79.9490172,76.7166176 C80.3447942,76.3314177 80.3533685,75.6983107 79.9681686,75.3025337 C79.9618715,75.2960638 79.9554871,75.2896794 79.9490172,75.2833824 L79.6216088,74.9647238 C79.2929605,74.6448586 79.2858404,74.1191345 79.6057057,73.7904862 C79.7126952,73.680559 79.8480431,73.6024158 79.9967376,73.5647238 L80.4396109,73.4524616 C80.9749638,73.3167572 81.2989429,72.7727577 81.1632384,72.2374048 C81.16102,72.2286531 81.1586832,72.2199319 81.1562286,72.2112435 L81.0320138,71.7715729 C80.9073287,71.3302373 81.1640246,70.8713869 81.6053602,70.7467017 C81.7529794,70.7049967 81.9092657,70.7049967 82.0568849,70.7467017 L82.4965556,70.8709165 C83.028037,71.0210694 83.5806109,70.7119416 83.7307638,70.1804601 C83.7332184,70.1717717 83.7355553,70.1630505 83.7377737,70.1542989 L83.8500359,69.7114256 C83.9627232,69.2668752 84.4144536,68.997847 84.859004,69.1105343 C85.0076984,69.1482263 85.1430464,69.2263695 85.2500359,69.3362967 L85.5686944,69.6637051 C85.9538944,70.0594821 86.5870013,70.0680565 86.9827783,69.6828565 C86.9892483,69.6765595 86.9956326,69.6701751 87.0019297,69.6637051 L87.3205882,69.3362967 C87.6404535,69.0076484 88.1661776,69.0005284 88.4948259,69.3203936 C88.6047531,69.4273831 88.6828963,69.5627311 88.7205882,69.7114256 L88.8328504,70.1542989 C88.9685549,70.6896518 89.5125544,71.0136309 90.0479073,70.8779264 C90.056659,70.875708 90.0653802,70.8733711 90.0740686,70.8709165 L90.5137392,70.7467017 C90.9550748,70.6220166 91.4139252,70.8787125 91.5386103,71.3200481 C91.5803154,71.4676673 91.5803154,71.6239537 91.5386103,71.7715729 L91.4143956,72.2112435 C91.2642426,72.742725 91.5733705,73.2952988 92.1048519,73.4454517 C92.1135403,73.4479064 92.1222615,73.4502432 92.1310132,73.4524616 L92.5738865,73.5647238 C93.0184369,73.6774111 93.2874651,74.1291415 93.1747778,74.5736919 C93.1370858,74.7223864 93.0589426,74.8577344 92.9490154,74.9647238 L92.6216069,75.2833824 C92.2258299,75.6685823 92.2172556,76.3016893 92.6024556,76.6974663 C92.6087526,76.7039362 92.615137,76.7103206 92.6216069,76.7166176 L92.9490154,77.0352762 C93.2776636,77.3551414 93.2847837,77.8808655 92.9649184,78.2095138 C92.857929,78.319441 92.722581,78.3975842 92.5738865,78.4352762 L92.1310132,78.5475384 C91.5956603,78.6832428 91.2716812,79.2272423 91.4073857,79.7625952 C91.4096041,79.7713469 91.4119409,79.7800681 91.4143956,79.7887565 L91.5386103,80.2284271 C91.6632954,80.6697627 91.4065995,81.1286131 90.965264,81.2532983 C90.8176448,81.2950033 90.6613584,81.2950033 90.5137392,81.2532983 L90.0740686,81.1290835 C89.5425871,80.9789306 88.9900133,81.2880584 88.8398603,81.8195399 C88.8374057,81.8282283 88.8350689,81.8369495 88.8328504,81.8457011 L88.7205882,82.2885744 C88.6079009,82.7331248 88.1561706,83.002153 87.7116202,82.8894657 C87.5629257,82.8517737 87.4275777,82.7736305 87.3205882,82.6637033 L87.0019297,82.3362949 C86.6167297,81.9405179 85.9836228,81.9319435 85.5878458,82.3171435 C85.5813759,82.3234405 85.5749915,82.3298249 85.5686944,82.3362949 Z" fill="#C9C5C5"/>
    <path stroke="#E5E5E5" d="M86.2853121 72A4 4 0 1 0 86.2853121 80A4 4 0 1 0 86.2853121 72Z"/>
    <g>
      <use fill="#000" filter="url(#h7w6lxidei)" xlink:href="#4meqvspt4j"/>
      <use fill="url(#8hk9j3fhkk)" xlink:href="#4meqvspt4j"/>
    </g>
    <g fill-rule="nonzero">
      <path d="M32.3888174,44.856292 L32.3888174,44.8267404 C30.5170432,39.8942698 24.4262573,37.5792223 19.2547357,38.2900427 C23.0874665,36.0615391 29.4162479,35.4673418 32.387762,38.88424 L32.387762,38.9137915 C35.3587483,35.5264449 41.717609,36.0910906 45.5207882,38.3195942 C40.3492667,37.6362146 34.2595362,39.9554837 32.387762,44.856292 L32.3888174,44.856292 Z" fill="#C9C9C9" opacity=".5225972" transform="translate(0 4.25)"/>
      <path d="M27.5908744,17.3042533 L27.5908744,17.2889498 C26.6937737,14.920604 23.7676424,13.8060884 21.2853121,14.1501529 C23.1259516,13.0799645 26.1644843,12.7950031 27.5914021,14.435642 L27.5914021,14.44989 C29.0162091,12.8234993 32.0711008,13.0947403 33.8974922,14.1644009 C31.4172727,13.8361676 28.4906136,14.9491002 27.5914021,17.3031979 L27.5908744,17.3042533 Z" fill="#D0D0D0" opacity=".79376363" transform="translate(0 4.25)"/>
      <path d="M113.012096,19.9285469 L113.012096,19.9185204 C112.388875,18.2768262 110.361955,17.5058473 108.641105,17.7427874 C109.916571,17.0013601 112.023175,16.8034703 113.012096,17.9406773 L113.012096,17.9507037 C114.001018,16.8235231 116.11712,17.0113865 117.383088,17.7528139 C115.662237,17.5253725 113.636373,18.296879 113.012096,19.9285469 L113.012096,19.9285469 Z" fill="#D0D0D0" transform="translate(0 4.25)"/>
      <path d="M54.0410896,2.79130238 L54.0410896,2.78127596 C53.4178685,1.13958172 51.3909486,0.368602838 49.6700985,0.605542959 C50.9455645,-0.135884368 53.052168,-0.333774223 54.0410896,0.803432814 L54.0410896,0.813459234 C55.0300112,-0.313721385 57.1461134,-0.125857948 58.4120807,0.615569378 C56.6912305,0.38812797 54.6653661,1.15963455 54.0410896,2.79130238 L54.0410896,2.79130238 Z" fill="#D0D0D0" opacity=".39698401" transform="translate(0 4.25)"/>
      <path d="M3.03008947,6.26783817 L3.03008947,6.26097799 C2.59842573,5.12324325 1.1926162,4.58814908 0,4.75279344 C0.884435729,4.23880752 2.34459901,4.10160389 3.03008947,4.88999707 L3.03008947,4.89685725 C3.71610764,4.11532425 5.1826034,4.2456677 6.06017894,4.75965362 C4.86756275,4.60134174 3.46175321,5.13696361 3.03008947,6.26783817 Z" fill="#E7E7E7" opacity=".35" transform="translate(0 4.25)"/>
    </g>
  </g>
</svg>
