<svg xmlns="http://www.w3.org/2000/svg" xmlns:xlink="http://www.w3.org/1999/xlink" viewBox="0 0 140 130" class="design-iconfont">
  <defs>
    <linearGradient x1="51.6655128%" y1="0%" x2="51.6655128%" y2="60.7356056%" id="777zkj021a">
      <stop stop-color="#C6C6C6" offset="0%"/>
      <stop stop-color="#FFF" stop-opacity=".07129589" offset="100%"/>
    </linearGradient>
    <linearGradient x1="27.8920443%" y1="8.72431564%" x2="61.7584324%" y2="95.5583414%" id="kz28eqhscf">
      <stop stop-color="#F8F8F8" offset="0%"/>
      <stop stop-color="#ECECEC" offset="100%"/>
    </linearGradient>
    <linearGradient x1="28.0758114%" y1="0%" x2="51.7454599%" y2="100%" id="zbiw2vu7ge">
      <stop stop-color="#EAEAEA" offset="0%"/>
      <stop stop-color="#BBBABA" offset="100%"/>
    </linearGradient>
    <linearGradient x1="50%" y1="0%" x2="50%" y2="100%" id="2af5z54oig">
      <stop stop-color="#AAA" offset="0%"/>
      <stop stop-color="#949494" offset="100%"/>
    </linearGradient>
    <path d="M95.9480063,83.3714221 L102.276864,81.727435 C102.592234,81.6455144 102.914301,81.8347624 102.996222,82.1501322 C103.008805,82.1985718 103.015173,82.2484155 103.015173,82.2984627 C103.015173,82.7501455 102.716165,83.1472704 102.282079,83.2721167 L95.9420377,85.0955587 C95.5931694,85.1958957 95.2290166,84.9944213 95.1286795,84.6455531 C95.1116923,84.5864892 95.1030728,84.5253349 95.1030728,84.4638768 C95.1030728,83.9498019 95.450444,83.5006691 95.9480063,83.3714221 Z" id="as2euqvlgc"/>
    <path d="M95.9424151,87.100926 L107.65927,83.7509584 C107.964749,83.6636189 108.283191,83.8404557 108.37053,84.1459343 C108.385234,84.1973617 108.392694,84.2505883 108.392694,84.3040763 C108.392694,84.7570444 108.096122,85.1565971 107.662555,85.2877462 L95.938656,88.8340964 C95.5961181,88.9377103 95.2344407,88.7440242 95.1308268,88.4014863 C95.1124243,88.3406495 95.1030728,88.277436 95.1030728,88.2138768 C95.1030728,87.6971328 95.4455791,87.2429764 95.9424151,87.100926 Z" id="zxli1ox5hd"/>
    <filter x="0%" y="0%" width="100%" height="100%" filterUnits="objectBoundingBox" id="gykq4ehqfb">
      <feGaussianBlur in="SourceGraphic"/>
    </filter>
  </defs>
  <g transform="translate(-1.535312 .75)" fill="none" fill-rule="evenodd">
    <path fill="url(#777zkj021a)" filter="url(#gykq4ehqfb)" d="M71.5353121 78A70 25.625 0 1 0 71.5353121 129.25A70 25.625 0 1 0 71.5353121 78Z"/>
    <path d="M109.202779,44.1770297 C109.070853,41.016069 112.468226,37.685187 113.556356,42.2034082 C114.644487,46.7216294 114.875622,53.1205957 116.458741,59.3538623 C118.04186,65.5871289 119.888832,65.0267049 119.888832,61.0689078 C119.888832,57.1111106 119.724187,52.2298275 120.680391,47.6123976 C121.636595,42.9949676 124.836078,44.1495889 125.957454,47.0846913 C127.07883,50.0197936 124.473544,56.5174411 125.165895,59.3538623 C125.858245,62.1902836 127.915772,63.181316 128.727912,58.4303763 C129.540052,53.6794367 128.019202,44.1770297 128.019202,44.1770297 C128.019202,44.1770297 129.144272,43.02663 130.047178,43.1268942 C130.950083,43.2271584 131.630296,44.5780864 131.630296,44.5780864 C131.630296,44.5780864 134.763816,55.5279918 132.817636,61.9923937 C130.871455,68.4567957 126.28727,63.3449049 123.846629,70.4356943 C121.405987,77.5264836 121.86773,89.4331204 121.86773,89.4331204 C121.86773,89.4331204 119.624979,90.1919621 118.04186,89.9608267 C117.059576,89.7926669 116.17019,89.277759 115.535255,88.5096344 C115.535255,88.5096344 118.207032,79.2747745 118.04186,73.8657851 C117.876688,68.4567957 116.36006,70.5676208 114.347916,67.7971629 C113.080682,66.0071047 112.060087,64.0546627 111.313605,61.9923937 C111.313605,61.9923937 109.334706,47.3374626 109.202779,44.1770297 Z" fill="#D3D3D3" fill-rule="nonzero"/>
    <path d="M26.4193842,62.038168 C26.5112051,59.7611154 24.1460255,57.3616349 23.3882393,60.6165273 C22.6304531,63.8714196 21.367652,65.0788116 21.367652,65.0788116 C21.367652,65.0788116 18.979781,69.1658968 18.979781,66.3162828 C18.979781,63.4666689 19.094821,61.8450275 18.4288557,58.5183671 C17.7628903,55.1917067 15.5354421,56.0223164 14.7549645,58.1368355 C13.9744869,60.2513545 15.7882134,63.0360606 15.3058899,65.0793393 C14.8235664,67.122618 13.3913715,67.8360769 12.8261981,64.4139017 C12.2610247,60.9917265 13.3196035,54.1463206 13.3196035,54.1463206 C13.3196035,54.1463206 12.5359596,53.317294 11.9074614,53.3874789 C11.2789633,53.4576639 10.8056107,54.4349759 10.8056107,54.4349759 C10.8056107,54.4349759 8.62407296,62.3231294 9.97869498,66.9796096 C11.333317,71.6360899 14.5254123,67.9521723 16.2246265,73.0619522 C17.9238408,78.1717322 17.6024676,86.7469593 17.6024676,86.7469593 C18.4569438,87.0462007 19.3617352,87.1752774 20.2658012,87.1269078 C20.9549718,87.0014394 21.5751217,86.6299495 22.0109259,86.0815216 C22.0109259,86.0815216 20.151289,79.4292562 20.2658012,75.5326731 C20.3803135,71.6360899 21.4367815,73.1579948 22.837314,71.1611542 C23.7214639,69.8660287 24.4311758,68.4600893 24.9481391,66.9796096 C24.9481391,66.9796096 26.3275633,64.3152206 26.4193842,62.038168 Z" fill="#D3D3D3" fill-rule="nonzero"/>
    <use fill="#D0CECE" xlink:href="#as2euqvlgc"/>
    <use fill="#D0CECE" xlink:href="#zxli1ox5hd"/>
    <rect stroke="url(#zbiw2vu7ge)" stroke-width="4" fill="url(#kz28eqhscf)" x="43.5353121" y="18.25" width="56" height="71" rx="4"/>
    <rect fill="#DADADA" x="49.7853121" y="24" width="44" height="26.9767442" rx="3"/>
    <rect fill="#D9D9D9" x="49.7853121" y="55.0232558" width="19" height="26.9767442" rx="3"/>
    <rect fill="#FFF" x="74.7853121" y="55.0232558" width="19" height="26.9767442" rx="3"/>
    <rect stroke="url(#2af5z54oig)" stroke-width="4" transform="rotate(-45 94.888865 73.490855)" x="94.8888655" y="65.990855" width="1" height="15" rx=".5"/>
    <path stroke="#AAA" stroke-width="4" fill-opacity=".42922312" fill="#D8D8D8" d="M78.4875848 41.7022728A15.5 15.5 0 1 0 78.4875848 72.7022728A15.5 15.5 0 1 0 78.4875848 41.7022728Z"/>
    <g fill-rule="nonzero">
      <path d="M55.3888174,8.38617631 L55.3888174,8.35662476 C53.5170432,3.42415414 47.4262573,1.10910668 42.2547357,1.81992704 C46.0874665,-0.408576589 52.4162479,-1.00277386 55.387762,2.41412431 L55.387762,2.44367587 C58.3587483,-0.943670759 64.717609,-0.379025037 68.5207882,1.84947859 C63.3492667,1.16609896 57.2595362,3.48536807 55.387762,8.38617631 L55.3888174,8.38617631 Z" fill="#C9C9C9" opacity=".69590298" transform="translate(0 .720116)"/>
      <path d="M27.5908744,44.8341377 L27.5908744,44.8188342 C26.6937737,42.4504884 23.7676424,41.3359727 21.2853121,41.6800372 C23.1259516,40.6098489 26.1644843,40.3248875 27.5914021,41.9655263 L27.5914021,41.9797744 C29.0162091,40.3533836 32.0711008,40.6246246 33.8974922,41.6942853 C31.4172727,41.366052 28.4906136,42.4789845 27.5914021,44.8330822 L27.5908744,44.8341377 Z" fill="#D0D0D0" opacity=".79376363" transform="translate(0 .720116)"/>
      <path d="M113.012096,23.4584312 L113.012096,23.4484048 C112.388875,21.8067106 110.361955,21.0357317 108.641105,21.2726718 C109.916571,20.5312445 112.023175,20.3333546 113.012096,21.4705616 L113.012096,21.4805881 C114.001018,20.3534075 116.11712,20.5412709 117.383088,21.2826982 C115.662237,21.0552568 113.636373,21.8267634 113.012096,23.4584312 L113.012096,23.4584312 Z" fill="#D0D0D0" transform="translate(0 .720116)"/>
      <path d="M38.0410896,12.3211867 L38.0410896,12.3111603 C37.4178685,10.6694661 35.3909486,9.89848719 33.6700985,10.1354273 C34.9455645,9.39399998 37.052168,9.19611012 38.0410896,10.3333172 L38.0410896,10.3433436 C39.0300112,9.21616296 41.1461134,9.4040264 42.4120807,10.1454537 C40.6912305,9.91801232 38.6653661,10.6895189 38.0410896,12.3211867 L38.0410896,12.3211867 Z" fill="#D0D0D0" opacity=".39698401" transform="translate(0 .720116)"/>
      <path d="M3.03008947,9.79772252 L3.03008947,9.79086234 C2.59842573,8.6531276 1.1926162,8.11803343 0,8.28267779 C0.884435729,7.76869187 2.34459901,7.63148823 3.03008947,8.41988142 L3.03008947,8.4267416 C3.71610764,7.6452086 5.1826034,7.77555205 6.06017894,8.28953797 C4.86756275,8.13122608 3.46175321,8.66684796 3.03008947,9.79772252 Z" fill="#E7E7E7" opacity=".35" transform="translate(0 .720116)"/>
    </g>
  </g>
</svg>
